HIERARCHY
ROOT Hips
{
	OFFSET 0.00 0.00 0.00
	CHANNELS 6 Xposition Yposition Zposition Xrotation Yrotation Zrotation
	JOINT Spine
	{
		OFFSET 0.00000 7.50895 0.00000
		CHANNELS 3 Xrotation Yrotation Zrotation
		JOINT Head
		{
			OFFSET 0.00000 13.86115 0.00000
			CHANNELS 3 Xrotation Yrotation Zrotation
			End Site
			{
				OFFSET 0.00000 4.52755 0.00000
			}
		}
		JOINT LeftShoulder
		{
			OFFSET 0.00000 8.20478 0.00000
			CHANNELS 3 Xrotation Yrotation Zrotation
			JOINT LeftArm
			{
				OFFSET 6.63596 0.00000 0.00000
				CHANNELS 3 Xrotation Yrotation Zrotation
				JOINT LeftForeArm
				{
					OFFSET 10.27422 0.00000 0.00000
					CHANNELS 3 Yrotation Zrotation Xrotation
					JOINT LeftHand
					{
						OFFSET 8.52215 0.00000 0.00000
						CHANNELS 3 Xrotation Yrotation Zrotation
						JOINT LeftHandThumb1
						{
							OFFSET 0.00000 0.00000 0.00000
							CHANNELS 3 Xrotation Zrotation Yrotation
							End Site
							{
								OFFSET 0.00000 0.00000 3.93700
							}
						}
						End Site
						{
							OFFSET 3.93700 0.00000 0.00000
						}
					}
				}
			}
		}
		JOINT RightShoulder
		{
			OFFSET 0.00000 8.20478 0.00000
			CHANNELS 3 Xrotation Yrotation Zrotation
			JOINT RightArm
			{
				OFFSET -6.63596 0.00000 0.00000
				CHANNELS 3 Xrotation Yrotation Zrotation
				JOINT RightForeArm
				{
					OFFSET -10.27422 0.00000 0.00000
					CHANNELS 3 Yrotation Zrotation Xrotation
					JOINT RightHand
					{
						OFFSET -8.52215 0.00000 0.00000
						CHANNELS 3 Xrotation Yrotation Zrotation
						JOINT RightHandThumb1
						{
							OFFSET 0.00000 0.00000 0.00000
							CHANNELS 3 Xrotation Zrotation Yrotation
							End Site
							{
								OFFSET 0.00000 0.00000 3.93700
							}
						}
						End Site
						{
							OFFSET -3.93700 0.00000 0.00000
						}
					}
				}
			}
		}
	}
	JOINT LeftUpLeg
	{
		OFFSET 3.00056 0.00000 0.00000
		CHANNELS 3 Xrotation Yrotation Zrotation
		JOINT LeftLeg
		{
			OFFSET 0.00000 -16.49085 0.00000
			CHANNELS 3 Xrotation Yrotation Zrotation
			JOINT LeftFoot
			{
				OFFSET 0.00000 -14.55658 0.00000
				CHANNELS 3 Xrotation Yrotation Zrotation
				JOINT LeftToeBase
				{
					OFFSET 0.00000 -1.25038 4.66650
					CHANNELS 3 Xrotation Yrotation Zrotation
					End Site
					{
						OFFSET 0.00000 0.00000 2.95275
					}
				}
			}
		}
	}
	JOINT RightUpLeg
	{
		OFFSET -3.00056 0.00000 0.00000
		CHANNELS 3 Xrotation Yrotation Zrotation
		JOINT RightLeg
		{
			OFFSET 0.00000 -16.49085 0.00000
			CHANNELS 3 Xrotation Yrotation Zrotation
			JOINT RightFoot
			{
				OFFSET 0.00000 -14.55658 0.00000
				CHANNELS 3 Xrotation Yrotation Zrotation
				JOINT RightToeBase
				{
					OFFSET 0.00000 -1.25038 4.66650
					CHANNELS 3 Xrotation Yrotation Zrotation
					End Site
					{
						OFFSET 0.00000 0.00000 2.95275
					}
				}
			}
		}
	}
}
MOTION
Frames: 9
Frame Time: 0.008333
 -9.7843 32.8112 -7.0790 11.8211 1.5019 -1.7884 -11.1543 4.5824 2.3347 -10.3317 -9.2137 7.2753 16.1428 21.2506 27.7412 -31.1142 -8.9353 -29.1246 -14.2513 -0.0000 7.5627 2.0937 27.9043 -4.4666 33.1476 -0.0000 26.2537 -18.8586 -6.1490 -39.6490 0.3075 -10.2800 34.5873 18.7439 -0.0000 31.0028 0.8737 -11.6131 4.3323 32.8623 0.0000 -24.3270 -8.4529 4.8490 4.7879 3.4494 -0.0000 0.0000 -9.7964 20.4859 -15.3651 2.7103 -0.0000 0.0000 -9.6681 -7.0179 -0.6946 4.7496 0.0000 -0.0000 -10.5271 -4.0461 -6.5245 -0.1383 0.0000 -0.0000
 -9.7951 32.8119 -7.0793 11.8165 1.4952 -1.7927 -11.1630 4.6097 2.3506 -10.2461 -9.2018 7.2591 16.1587 21.2193 27.7330 -31.0937 -8.9420 -29.0982 -14.2284 -0.0000 7.5877 2.0695 27.8358 -4.4253 33.1476 -0.0000 26.2537 -18.8620 -6.1306 -39.6638 0.2973 -10.2987 34.6033 18.7721 -0.0000 31.0389 0.8686 -11.5710 4.3223 32.8623 0.0000 -24.3270 -8.4595 4.8191 4.8148 3.4734 0.0000 -0.0000 -9.7732 20.5270 -15.4396 2.6673 -0.0000 0.0000 -9.6741 -7.0180 -0.6701 4.7725 -0.0000 -0.0000 -10.5284 -4.0311 -6.5666 -0.1248 0.0000 0.0000
 -9.8057 32.8126 -7.0803 11.8141 1.4800 -1.7974 -11.1601 4.6188 2.3688 -10.1997 -9.2615 7.2981 16.1475 21.2275 27.7241 -31.0925 -8.9460 -29.0912 -14.2366 -0.0000 7.5751 2.0472 27.8406 -4.3769 33.1476 -0.0000 26.2537 -18.8791 -6.0938 -39.6600 0.2928 -10.3047 34.6009 18.8188 -0.0000 31.0898 0.8724 -11.6073 4.3280 32.8623 0.0000 -24.3270 -8.4850 4.8149 4.8439 3.5283 0.0000 0.0000 -9.7792 20.5573 -15.4739 2.6818 0.0000 -0.0000 -9.6906 -7.0010 -0.6461 4.8084 -0.0000 -0.0000 -10.5364 -4.0266 -6.5602 -0.1539 0.0000 0.0000
 -9.8150 32.8135 -7.0815 11.8124 1.4756 -1.7938 -11.1600 4.6304 2.3822 -10.1274 -9.1673 7.2465 16.1895 21.2697 27.7328 -31.1848 -8.9039 -29.1497 -14.3063 -0.0000 7.5110 1.8806 27.8616 -4.0190 33.1476 -0.0000 26.2537 -18.8887 -6.0585 -39.6624 0.3143 -10.3021 34.6007 18.8595 -0.0000 31.0792 0.8702 -11.6199 4.3127 32.8623 0.0000 -24.3270 -8.4996 4.7599 4.8589 3.5649 -0.0000 -0.0000 -9.7663 20.6320 -15.5428 2.6881 0.0000 0.0000 -9.7027 -6.9832 -0.6318 4.8341 -0.0000 0.0000 -10.5423 -4.0260 -6.6202 -0.1538 -0.0000 -0.0000
 -9.8260 32.8145 -7.0820 11.8028 1.4656 -1.7928 -11.1498 4.6475 2.3926 -10.0752 -9.2033 7.2689 16.1951 21.2709 27.7325 -31.2426 -8.8647 -29.1643 -14.3182 -0.0000 7.5884 1.8925 27.8172 -4.0501 33.1476 -0.0000 26.2537 -18.9020 -6.0308 -39.6647 0.3322 -10.3009 34.6071 18.9056 -0.0000 31.0844 0.8609 -11.4866 4.3151 32.8623 0.0000 -24.3270 -8.5150 4.7285 4.8839 3.6161 0.0000 0.0000 -9.7468 20.6735 -15.6132 2.6611 -0.0000 0.0000 -9.6984 -6.9534 -0.6128 4.8445 0.0000 0.0000 -10.5534 -4.0476 -6.5693 -0.1304 0.0000 0.0000
 -9.8363 32.8159 -7.0832 11.7929 1.4617 -1.7831 -11.1402 4.6609 2.3897 -10.0017 -9.1697 7.2663 16.1823 21.2464 27.7435 -31.2166 -8.8477 -29.1573 -14.3166 -0.0000 7.5893 1.8914 27.8222 -4.0472 33.1476 -0.0000 26.2537 -18.8795 -6.0497 -39.6297 0.2810 -10.2260 34.5837 18.8943 -0.0000 31.0282 0.8761 -11.6210 4.3415 32.8623 0.0000 -24.3270 -8.5233 4.6436 4.8955 3.6634 0.0000 0.0000 -9.7337 20.7690 -15.6690 2.6405 -0.0000 -0.0000 -9.7074 -6.9574 -0.6005 4.8747 -0.0000 -0.0000 -10.5409 -4.0285 -6.6519 -0.2047 0.0000 -0.0000
 -9.8470 32.8171 -7.0856 11.7809 1.4602 -1.7748 -11.1227 4.6763 2.3904 -9.9296 -9.1282 7.2739 16.2039 21.2500 27.7308 -31.2577 -8.8465 -29.1554 -14.3078 -0.0000 7.5966 1.9049 27.8129 -4.0773 33.1476 -0.0000 26.2537 -18.8847 -6.0112 -39.6084 0.2858 -10.2254 34.5627 18.8961 -0.0000 31.0209 0.8545 -11.4494 4.2971 32.8623 0.0000 -24.3270 -8.5501 4.5962 4.9117 3.7419 -0.0000 0.0000 -9.7140 20.8209 -15.7487 2.5986 0.0000 -0.0000 -9.7148 -6.9275 -0.5898 4.9059 0.0000 -0.0000 -10.5487 -4.0573 -6.6786 -0.1985 0.0000 0.0000
 -9.8589 32.8182 -7.0876 11.7640 1.4532 -1.7685 -11.1067 4.7049 2.3953 -9.8453 -9.1353 7.2497 16.2381 21.2332 27.7130 -31.2635 -8.8662 -29.1387 -14.2597 -0.0000 7.6102 1.8606 27.7734 -3.9879 33.1476 -0.0000 26.2537 -18.8810 -5.9692 -39.5982 0.2390 -10.2765 34.5608 18.9108 -0.0000 31.0244 0.8447 -11.4047 4.2644 32.8623 0.0000 -24.3270 -8.5941 4.6218 4.9372 3.8524 0.0000 0.0000 -9.7075 20.8128 -15.8269 2.5523 -0.0000 0.0000 -9.7139 -6.8842 -0.5725 4.9332 -0.0000 0.0000 -10.5508 -4.0784 -6.7054 -0.2307 0.0000 0.0000
 -9.8707 32.8193 -7.0901 11.7491 1.4531 -1.7692 -11.0936 4.7180 2.4148 -9.7612 -9.1872 7.2804 16.2342 21.1932 27.6923 -31.2284 -8.8560 -29.0953 -14.2810 -0.0000 7.5831 2.0454 27.8722 -4.3685 33.1476 -0.0000 26.2537 -18.8974 -5.9084 -39.5925 0.2329 -10.3105 34.5507 18.9656 -0.0000 31.0110 0.8660 -11.5169 4.3295 32.8623 0.0000 -24.3270 -8.6409 4.6292 4.9691 3.9652 0.0000 0.0000 -9.7317 20.8188 -15.9468 2.6536 0.0000 0.0000 -9.7210 -6.8778 -0.5492 4.9737 0.0000 -0.0000 -10.5675 -4.0922 -6.7466 -0.2356 0.0000 -0.0000
